HIERARCHY
ROOT Hips
{
	OFFSET -3.958830 18.904000 13.208200
	CHANNELS 6 Xposition Yposition Zposition Zrotation Yrotation Xrotation 
	JOINT LHipJoint
	{
		OFFSET 0.000000 0.000000 0.000000
		CHANNELS 3 Zrotation Yrotation Xrotation
		JOINT LeftUpLeg
		{
			OFFSET 1.800000 -1.400000 0.085000
			CHANNELS 3 Zrotation Yrotation Xrotation
			JOINT LeftLeg
			{
				OFFSET 2.215000 -6.000000 0.000000
				CHANNELS 3 Zrotation Yrotation Xrotation
				JOINT LeftFoot
				{
					OFFSET 2.500000 -6.900000 0.000000
					CHANNELS 3 Zrotation Yrotation Xrotation
					JOINT LeftToeBase
					{
						OFFSET 0.200000 -0.500000 1.950000
						CHANNELS 3 Zrotation Yrotation Xrotation
						End Site
						{
							OFFSET 0.000000 0.000000 0.000000
						}
					}
				}
			}
		}
	}
	JOINT RHipJoint
	{
		OFFSET 0.000000 0.000000 0.000000
		CHANNELS 3 Zrotation Yrotation Xrotation
		JOINT RightUpLeg
		{
			OFFSET -1.800000 -1.400000 0.085000
			CHANNELS 3 Zrotation Yrotation Xrotation
			JOINT RightLeg
			{
				OFFSET -2.215000 -6.000000 0.000000
				CHANNELS 3 Zrotation Yrotation Xrotation
				JOINT RightFoot
				{
					OFFSET -2.500000 -6.900000 0.000000
					CHANNELS 3 Zrotation Yrotation Xrotation
					JOINT RightToeBase
					{
						OFFSET -0.200000 -0.500000 1.950000
						CHANNELS 3 Zrotation Yrotation Xrotation
						End Site
						{
							OFFSET 0.000000 0.000000 0.000000
						}
					}
				}
			}
		}
	}
	JOINT LowerBack
	{
		OFFSET 0.000000 0.000000 0.000000
		CHANNELS 3 Zrotation Yrotation Xrotation
		JOINT Spine
		{
			OFFSET -0.087000 1.940000 -0.288900
			CHANNELS 3 Zrotation Yrotation Xrotation
			JOINT Spine1
			{
				OFFSET 0.000000 1.950000 0.060000
				CHANNELS 3 Zrotation Yrotation Xrotation
				JOINT Neck
				{
					OFFSET 0.000000 0.000000 0.000000
					CHANNELS 3 Zrotation Yrotation Xrotation
					JOINT Neck1
					{
						OFFSET 0.000000 1.600000 0.340000
						CHANNELS 3 Zrotation Yrotation Xrotation
						JOINT Head
						{
							OFFSET 0.000000 1.667000 -0.240000
							CHANNELS 3 Zrotation Yrotation Xrotation
							End Site
							{
								OFFSET 0.000000 0.000000 0.000000
							}
						}
					}
				}
				JOINT LeftShoulder
				{
					OFFSET 0.000000 0.000000 0.000000
					CHANNELS 3 Zrotation Yrotation Xrotation
					JOINT LeftArm
					{
						OFFSET 2.700000 1.550000 -0.730000
						CHANNELS 3 Zrotation Yrotation Xrotation
						JOINT LeftForeArm
						{
							OFFSET 5.450000 0.000000 0.000000
							CHANNELS 3 Zrotation Yrotation Xrotation
							JOINT LeftHand
							{
								OFFSET 3.450000 0.000000 0.000000
								CHANNELS 3 Zrotation Yrotation Xrotation
								JOINT LeftHandIndex1
								{
									OFFSET 0.750000 0.000000 0.000000
									CHANNELS 3 Zrotation Yrotation Xrotation
									End Site
									{
										OFFSET 0.000000 0.000000 0.000000
									}
								}
							}
						}
					}
				}
				JOINT RightShoulder
				{
					OFFSET 0.000000 0.000000 0.000000
					CHANNELS 3 Zrotation Yrotation Xrotation
					JOINT RightArm
					{
						OFFSET -2.700000 1.550000 -0.730000
						CHANNELS 3 Zrotation Yrotation Xrotation
						JOINT RightForeArm
						{
							OFFSET -5.450000 0.000000 0.000000
							CHANNELS 3 Zrotation Yrotation Xrotation
							JOINT RightHand
							{
								OFFSET -3.450000 0.000000 0.000000
								CHANNELS 3 Zrotation Yrotation Xrotation
								JOINT RightHandIndex1
								{
									OFFSET -0.750000 0.000000 0.000000
									CHANNELS 3 Zrotation Yrotation Xrotation
									End Site
									{
										OFFSET 0.000000 0.000000 0.000000
									}
								}
							}
						}
					}
				}
			}
		}
	}
}
MOTION
Frames: 7
Frame Time: 0.016667
-7.766230 16.361060 1.554320 -164.162179 24.837486 165.711997 -14.666044 13.073608 2.819338 6.712253 -2.069633 -15.772141 -2.462620 11.181800 44.489045 -0.202972 8.501212 1.563996 1.132200 0.843920 0.617440 18.595594 -11.271434 3.609012 -17.673794 3.997519 -37.881796 -14.770924 -0.476247 16.953075 -0.483073 -2.528998 3.135685 0.582350 0.315930 0.441570 -4.703475 -0.096721 -8.194657 24.820915 -2.584238 23.684517 -6.728846 0.879455 28.408116 5.997164 -6.867305 -20.139101 -13.470155 -2.905692 37.535580 8.365040 -10.406080 -27.333140 -4.700544 -40.141884 7.356657 -16.866785 -33.382733 -8.757255 31.301160 -26.176571 -11.847145 -3.345758 3.160816 0.876240 -0.116400 0.292730 0.496770 -5.241144 48.369908 5.574651 -0.620461 31.503126 -5.284624 -13.962326 -4.523590 -1.602065 3.153572 -1.418200 -0.122690 0.517990 -0.208050 -0.006640 
-7.702820 16.374840 1.554720 -163.883443 23.651867 164.878998 -14.695361 13.042731 2.707531 7.814808 -1.864783 -14.913767 -2.730144 11.440666 44.440261 -0.254930 8.599941 1.501579 1.176310 0.885820 0.664090 18.599236 -11.234962 3.605532 -18.650194 3.978544 -38.368263 -18.292550 0.168783 17.265239 -0.562858 -2.788545 3.017193 0.626860 0.292490 0.434710 -4.685631 -0.037791 -8.164351 24.823273 -2.797741 24.461069 -6.816685 0.671735 28.128603 5.781805 -6.433284 -18.709617 -12.450774 -3.239408 36.776698 8.755770 -10.139320 -29.127620 -2.298173 -40.322966 6.148123 -13.346034 -31.834726 -10.079778 31.891833 -30.601130 -13.024271 -3.325118 3.106804 0.919650 -0.140200 0.315410 0.484380 -7.364905 47.760136 3.822474 -0.827438 30.291401 -6.561662 -15.860219 -1.434982 -2.037555 2.940397 -1.466570 -0.139890 0.550710 -0.205790 -0.031810 
-7.580030 16.386270 1.511620 -162.709266 18.488574 164.621556 -14.683403 12.782155 2.458676 8.512474 -2.329224 -15.075042 -0.556254 10.473635 45.881740 -0.358897 8.778694 1.491700 1.052120 0.733830 0.543130 18.715838 -11.196571 3.714863 -21.517731 3.291260 -40.977067 -22.816226 0.782305 20.126573 -0.591627 -3.621634 2.754069 0.620840 0.482870 0.397500 -4.906460 0.429394 -8.170602 25.873289 -3.266422 23.503386 -6.141022 -0.401209 26.186000 4.385321 -4.989244 -16.007148 -9.349799 -4.025901 35.427551 8.958530 -10.752240 -25.763790 4.478564 -42.824826 4.551306 -5.546678 -30.473874 -10.527741 33.108939 -31.027999 -12.979654 -3.580946 3.075067 0.862420 -0.015270 0.153040 0.484340 -11.566769 47.153207 -2.184402 -0.241432 27.564897 -6.192851 -17.327345 -1.525961 -2.195276 2.751819 -1.571366 -0.268110 0.648690 -0.095720 -0.031150 
-7.457030 16.454930 1.482040 -161.366751 17.252424 163.819143 -14.778373 13.193682 2.268537 11.086720 -1.311629 -13.523491 0.236091 10.161337 44.328427 -0.351068 8.533513 1.579991 0.915150 0.545330 0.546770 18.605906 -10.911643 3.921987 -18.927870 5.347698 -42.238593 -26.965894 2.343465 23.432043 -0.701270 -4.061912 2.650229 0.453080 0.430500 0.400630 -4.505758 -0.351182 -8.188907 25.864160 -3.688125 27.541634 -6.104647 0.091662 20.625975 4.024233 -3.618577 -14.564732 -7.930227 -4.117162 37.554265 8.705470 -9.434210 -26.732310 6.606701 -44.095314 1.500668 6.364829 -27.646478 -11.537776 30.178079 -33.541721 -10.810340 -3.699432 3.057546 0.947720 -0.045940 0.197100 0.413100 -13.781751 47.264699 -4.761043 -4.121267 25.522029 -6.762213 -16.587571 0.851984 -1.860966 2.635131 -1.386929 -0.287550 0.597450 -0.064120 -0.084850 
-7.288340 16.564560 1.430780 -159.314170 14.273953 163.438510 -14.882336 13.513776 2.042150 14.521610 -0.446631 -12.225739 0.989868 9.485643 41.243026 -0.431180 8.009370 1.703119 0.913350 0.554970 0.584350 18.537594 -10.571148 4.099043 -25.665851 5.719279 -43.419870 -9.508339 -3.417885 42.756380 -0.827769 -5.734912 2.015308 0.420520 0.340930 0.436600 -4.201691 -1.255048 -8.083441 25.656481 -3.949963 28.685400 -4.304108 -0.846703 18.445188 3.369061 -2.868029 -13.170972 -7.081842 -3.258874 37.479259 7.419710 -7.479390 -27.198920 9.271747 -41.490003 0.523792 15.518716 -25.825095 -12.493428 31.725980 -35.473313 -10.572045 -3.768539 3.173863 0.949650 -0.063180 0.249750 0.370000 -15.487338 43.855000 -3.178495 -11.519635 26.688817 -8.727327 -17.583908 1.416837 -2.021346 2.601740 -1.327735 -0.231320 0.501720 -0.080610 -0.109260 
-7.159420 16.747510 1.386430 -156.494312 10.166247 163.259675 -14.946048 13.372220 1.594389 18.040391 0.275082 -10.482457 1.761234 8.317715 36.129012 -0.743237 7.331412 1.896798 1.018980 0.709840 0.625670 18.623691 -10.075105 4.473742 -34.935129 4.650623 -42.654254 3.572022 -11.265794 48.507610 -1.089469 -7.846524 1.236019 0.587540 0.371090 0.467460 -4.294405 -1.497085 -7.967045 27.865338 -5.106174 27.843489 -3.097277 -3.522959 20.114504 2.463696 -2.847817 -10.866090 -6.291342 -2.816532 32.019056 5.615970 -6.626160 -27.595010 12.731626 -36.826268 -0.201351 24.435824 -22.679713 -13.902995 36.563084 -31.868704 -10.848285 -4.035073 3.252114 0.896050 0.006760 0.228240 0.377090 -17.111977 38.083953 -0.834210 -21.053625 26.685268 -11.349164 -18.856490 5.573809 -2.783647 2.380853 -1.399335 -0.238710 0.545060 -0.072700 -0.113970 
-6.987580 16.977220 1.303530 -154.693585 3.450901 160.682333 -15.199287 13.955815 1.535630 21.071539 0.800583 -7.437784 2.889988 6.934193 29.003792 -1.002493 6.777129 2.153436 0.837300 0.451920 0.570930 18.362174 -9.548163 4.366982 -38.399135 3.706889 -37.464462 11.721104 -15.469876 47.097293 -1.151023 -8.732904 0.926274 0.515440 0.504340 0.480830 -3.573358 -3.296561 -7.984003 25.738764 -5.509632 30.231604 -0.270140 -5.301483 20.519220 2.077027 -1.471784 -10.790379 -4.367075 -2.675308 29.900816 4.019400 -5.907660 -26.080100 16.265941 -34.404107 -1.064847 32.452599 -18.654121 -15.213835 37.134449 -29.366662 -9.807950 -4.539542 3.277273 0.930970 0.111160 0.130340 0.286100 -20.227500 34.500747 2.353729 -28.598475 20.285672 -13.703634 -21.876475 7.192566 -3.173185 2.270325 -1.347412 -0.384180 0.621910 0.097300 -0.180630 
